<svg xmlns="http://www.w3.org/2000/svg" width="80" height="80" viewBox="0 0 80 80"><rect width="80" height="80" rx="26" fill="#f4dbe3"/><path d="M19 36V20l15 10a35 35 0 0 1 12 0l15-10v16c5 6 5 19-2 25-9 8-29 8-38 0-7-6-7-19-2-25Z" fill="#fffaf7" stroke="#835663" stroke-width="2.5" stroke-linejoin="round"/><path d="m29 46 4 2-4 2m22-4-4 2 4 2m-14 5 3 3 3-3M16 47l8 2m-7 7 7-2m40-7-8 2m7 7-7-2" fill="none" stroke="#835663" stroke-width="2.5" stroke-linecap="round"/><ellipse cx="27" cy="54" rx="4" ry="2" fill="#efb3c6"/><ellipse cx="53" cy="54" rx="4" ry="2" fill="#efb3c6"/></svg>
